<?xml version="1.0" encoding="utf-8"?>
<svg viewBox="5.431 3.7633 1014.095 764.2367" xmlns="http://www.w3.org/2000/svg">
  <path d="M 61.942 75.939 C 57.277 121.928 1016.814 30.637 1019.526 3.899 C 1003.073 -6.671 861.609 603.684 911.623 635.815 L 5.431 768 C 37.511 763.17 108.262 68.964 61.942 75.939 Z" fill="#ffd335" fill-rule="nonzero" opacity="1" stroke="none" style=""/>
  <g id="Layer-1" layername="Layer 1">
    <g opacity="1" layername="Pencil">
      <path d="M518 374L522 378L508 392L502.1 393.9L504 387.9L518 374M518 372L502.8 387.2L500 396L508.8 393.2L524 378L518 372L518 372Z" fill="#000000" fill-rule="nonzero" opacity="1" stroke="none" layername="path"/>
      <path d="M508.8 393.2L524 378C524 378 523.9 375.9 522 374C520.1 372.1 518 372 518 372L502.8 387.2L503.9 388.2C503.9 388.2 505.1 388.5 506.3 389.7C507.6 390.9 507.8 392 507.8 392L508.8 393.2ZM502.5 391.4L500.6 395.4L504.6 393.5L502.5 391.4Z" fill="#000000" fill-rule="nonzero" opacity="1" stroke="none" layername="path"/>
    </g>
    <g opacity="1" layername="Group 1">
      <g fill="#000000" opacity="1" stroke="#ffffff" stroke-linecap="butt" stroke-linejoin="miter" stroke-width="8" layername="Text 1">
        <path d="M185.812 325.297L164.787 338.202C164.69 338.009 164.57 337.791 164.425 337.55C164.28 337.308 163.893 336.897 163.265 336.317C162.636 335.737 161.935 335.206 161.162 334.722C160.389 334.239 159.277 333.804 157.827 333.417C156.377 333.031 154.782 332.837 153.042 332.837C152.075 332.837 151.109 333.031 150.142 333.417C149.175 333.804 148.426 334.287 147.895 334.867C147.363 335.447 147.387 336.148 147.967 336.97C148.547 337.791 149.804 338.541 151.737 339.217C153.38 339.797 154.975 340.474 156.522 341.247C166.285 345.501 173.342 350.527 177.692 356.327C181.752 361.547 184.048 367.251 184.58 373.437C185.111 379.624 184.193 385.255 181.825 390.33C179.456 395.405 175.855 399.779 171.022 403.452C166.189 407.126 160.775 409.204 154.782 409.687C148.982 410.364 143.375 409.591 137.962 407.367C128.102 403.404 121.529 395.816 118.242 384.602L141.442 376.917C142.119 379.334 143.52 381.195 145.647 382.5C147.774 383.805 150.045 384.312 152.462 384.022C154.202 383.926 155.797 383.418 157.247 382.5C158.697 381.581 159.519 380.252 159.712 378.512C160.002 373.292 155.797 368.797 147.097 365.027C146.13 364.641 144.97 364.157 143.617 363.577C137.72 361.354 133.008 358.357 129.48 354.587C125.951 350.817 123.752 346.878 122.882 342.77C122.012 338.661 122.109 334.481 123.172 330.227C124.235 325.974 126.12 322.156 128.827 318.772C131.534 315.389 135.014 312.61 139.267 310.435C143.52 308.26 148.112 307.172 153.042 307.172C159.809 306.979 166.116 308.501 171.965 311.74C177.813 314.978 182.429 319.497 185.812 325.297Z"/>
        <path d="M201.612 316.742L226.117 316.742L226.117 331.822L240.472 331.822L240.472 356.182L226.117 356.182L226.117 375.902C226.117 376.096 226.141 376.289 226.19 376.482C226.238 376.676 226.31 377.086 226.407 377.715C226.504 378.343 226.721 378.899 227.06 379.382C227.398 379.866 227.857 380.446 228.437 381.122C229.017 381.799 229.742 382.258 230.612 382.5C231.482 382.741 232.57 382.935 233.875 383.08C235.18 383.225 236.702 383.007 238.442 382.427L244.387 406.062C239.747 407.222 235.47 407.802 231.555 407.802C227.64 407.802 224.305 407.391 221.55 406.57C218.795 405.748 216.305 404.54 214.082 402.945C211.859 401.35 210.07 399.682 208.717 397.942C207.364 396.202 206.204 394.221 205.237 391.997C204.27 389.774 203.57 387.841 203.135 386.197C202.7 384.554 202.337 382.814 202.047 380.977C201.757 379.141 201.612 377.932 201.612 377.352C201.612 376.772 201.612 376.289 201.612 375.902L201.612 356.182L195.377 356.182L195.377 331.822L201.612 331.822L201.612 316.742Z"/>
        <path d="M257.287 335.592L281.647 335.592L281.647 402.727L257.287 402.727L257.287 335.592ZM269.612 330.807C267.485 330.807 265.504 330.251 263.667 329.14C261.83 328.028 260.405 326.53 259.39 324.645C258.375 322.76 257.915 320.754 258.012 318.627C258.012 315.147 259.172 312.175 261.492 309.71C263.812 307.245 266.519 306.012 269.612 306.012C272.802 306.012 275.533 307.245 277.805 309.71C280.076 312.175 281.212 315.147 281.212 318.627C281.309 320.754 280.85 322.76 279.835 324.645C278.82 326.53 277.394 328.028 275.557 329.14C273.72 330.251 271.739 330.807 269.612 330.807Z"/>
        <path d="M362.262 348.932L338.337 352.412C338.24 349.706 336.742 348.062 333.842 347.482C330.169 346.806 326.93 348.256 324.127 351.832C323.16 352.992 322.387 354.346 321.807 355.892C320.744 358.309 320.115 361.523 319.922 365.535C319.729 369.546 320.019 373.389 320.792 377.062C321.662 380.349 323.112 382.838 325.142 384.53C327.172 386.221 329.25 387.019 331.377 386.922C333.504 386.826 335.461 386.028 337.25 384.53C339.038 383.031 340.077 381.074 340.367 378.657L364.147 380.252C363.76 389.436 360.135 396.734 353.272 402.147C346.409 407.561 338.385 410.171 329.202 409.977C322.629 409.784 316.829 407.923 311.802 404.395C306.775 400.866 302.981 396.468 300.42 391.2C297.858 385.931 296.215 380.059 295.49 373.582C294.765 367.106 295.079 360.846 296.432 354.805C297.785 348.763 300.178 343.229 303.61 338.202C307.041 333.176 311.27 329.551 316.297 327.327C319.777 325.684 323.523 324.645 327.535 324.21C331.546 323.775 335.485 323.968 339.352 324.79C343.219 325.611 346.771 326.989 350.01 328.922C353.248 330.856 356.003 333.562 358.275 337.042C360.546 340.522 361.875 344.486 362.262 348.932Z"/>
        <path d="M377.627 299.922L401.842 299.922L401.842 344.292L425.477 323.412L440.992 343.712L415.037 366.332L441.427 394.752L424.027 412.877L401.842 389.097L401.842 405.337L377.627 405.337L377.627 299.922Z"/>
        <path d="M453.312 335.592L477.672 335.592L477.672 402.727L453.312 402.727L453.312 335.592ZM465.637 330.807C463.51 330.807 461.529 330.251 459.692 329.14C457.855 328.028 456.43 326.53 455.415 324.645C454.4 322.76 453.94 320.754 454.037 318.627C454.037 315.147 455.197 312.175 457.517 309.71C459.837 307.245 462.544 306.012 465.637 306.012C468.827 306.012 471.558 307.245 473.83 309.71C476.101 312.175 477.237 315.147 477.237 318.627C477.334 320.754 476.875 322.76 475.86 324.645C474.845 326.53 473.419 328.028 471.582 329.14C469.745 330.251 467.764 330.807 465.637 330.807Z"/>
        <path d="M491.442 364.447L491.587 339.942L496.082 339.942C495.792 333.659 496.372 328.173 497.822 323.485C499.272 318.796 501.254 315.22 503.767 312.755C506.28 310.29 509.06 308.308 512.105 306.81C515.15 305.311 518.243 304.417 521.385 304.127C524.526 303.837 527.402 303.741 530.012 303.837C532.622 303.934 534.749 304.127 536.392 304.417C538.035 304.707 538.857 304.901 538.857 304.997L533.637 328.922C533.637 328.922 533.589 328.922 533.492 328.922C532.912 328.729 532.284 328.584 531.607 328.487C530.93 328.391 529.819 328.439 528.272 328.632C526.725 328.826 525.396 329.236 524.285 329.865C523.173 330.493 522.206 331.653 521.385 333.345C520.563 335.036 520.249 337.236 520.442 339.942L520.442 340.087L535.087 340.087L535.087 364.592L521.457 364.447L522.327 405.627L497.967 405.627C497.87 393.157 497.58 379.431 497.097 364.447L491.442 364.447Z"/>
        <path d="M592.357 329.792L617.152 331.242L599.752 397.652L599.607 397.652C599.414 398.522 599.075 399.634 598.592 400.987C598.109 402.341 597.166 404.419 595.765 407.222C594.363 410.026 592.768 412.587 590.98 414.907C589.191 417.227 586.726 419.451 583.585 421.577C580.443 423.704 577.06 425.154 573.435 425.927C569.81 426.701 565.387 426.58 560.167 425.565C554.947 424.55 549.34 422.447 543.347 419.257L555.092 397.942C557.412 399.199 559.587 400.045 561.617 400.48C563.647 400.915 565.363 400.987 566.765 400.697C568.166 400.407 569.423 399.924 570.535 399.247C571.646 398.571 572.54 397.797 573.217 396.927C573.894 396.057 574.45 395.187 574.885 394.317C575.32 393.447 575.61 392.746 575.755 392.215C575.9 391.683 575.972 391.369 575.972 391.272L575.972 391.127L576.262 390.402C572.395 390.112 568.867 389.387 565.677 388.227C562.487 387.067 559.901 385.738 557.92 384.24C555.938 382.741 554.222 380.977 552.772 378.947C551.322 376.917 550.235 375.008 549.51 373.22C548.785 371.431 548.229 369.546 547.842 367.565C547.455 365.583 547.238 363.988 547.19 362.78C547.141 361.571 547.117 360.436 547.117 359.372L546.972 359.372L546.972 331.242L571.332 331.242L571.332 359.372C571.139 362.466 571.912 364.834 573.652 366.477C575.392 368.121 577.398 368.338 579.67 367.13C581.941 365.921 583.609 363.287 584.672 359.227L592.357 329.792Z"/>
      </g>
      <g opacity="1" layername="Note">
        <path d="M639.39 517.402L639.39 427.321L729.471 427.321" fill="none" opacity="1" stroke="#000000" stroke-linecap="butt" stroke-linejoin="miter" stroke-width="14" layername="path"/>
        <path d="M399.174 517.402C382.599 517.402 369.147 503.95 369.147 487.375L369.147 187.104C369.147 170.53 382.599 157.077 399.174 157.077L699.444 157.077C716.019 157.077 729.471 170.53 729.471 187.104L729.471 427.321L639.39 517.402L399.174 517.402Z" fill="none" opacity="1" stroke="#000000" stroke-linecap="butt" stroke-linejoin="miter" stroke-width="14" layername="path"/>
      </g>
      <g opacity="1" layername="Pencil 1">
        <path d="M630.757 619.265L625.717 646.596C625.717 648.204 627.017 649.504 628.625 649.504L655.955 644.464L630.757 619.265Z" fill="#000000" fill-rule="nonzero" opacity="1" stroke="none" layername="path"/>
        <path d="M630.757 654.544C625.198 654.544 620.677 650.023 620.677 644.464C620.677 644.066 620.727 643.668 620.818 643.285C640.362 562.21 641.013 561.56 642.313 560.265L760.959 441.618L768.085 448.745L650.235 566.595C648.159 573.55 637.636 616.544 630.948 644.263L708.813 624.799L825.846 507.765L832.972 514.892L714.956 632.908C714.311 633.553 713.5 634.012 712.613 634.234L631.976 654.393C631.578 654.493 631.17 654.544 630.757 654.544ZM873.709 474.155L866.583 467.029L870.831 462.78C877.494 456.118 881.168 447.258 881.168 437.834C881.168 428.409 877.494 419.554 870.831 412.887L862.334 404.39C848.581 390.636 826.199 390.636 812.44 404.39L808.409 408.427L801.272 401.305L805.309 397.263C822.999 379.579 851.776 379.579 869.46 397.263L877.957 405.766C886.525 414.333 891.247 425.718 891.247 437.839C891.247 449.954 886.525 461.344 877.957 469.912L873.709 474.155Z" fill="#000000" fill-rule="nonzero" opacity="1" stroke="none" layername="path"/>
        <path d="M748.481 496.552C747.19 496.552 745.9 496.058 744.917 495.075C742.947 493.105 742.947 489.915 744.917 487.949L760.722 472.149C762.693 470.179 765.878 470.179 767.848 472.149C769.819 474.12 769.819 477.31 767.848 479.276L752.044 495.075C751.061 496.058 749.771 496.552 748.481 496.552ZM678.66 566.373C677.369 566.373 676.079 565.879 675.096 564.896C673.126 562.926 673.126 559.741 675.096 557.77L730.428 502.438C732.399 500.468 735.584 500.468 737.554 502.438C739.525 504.409 739.525 507.594 737.554 509.565L682.223 564.896C681.24 565.884 679.95 566.373 678.66 566.373ZM837.387 521.418C834.807 521.418 832.227 520.435 830.261 518.47L756.751 444.96C752.82 441.029 752.82 434.638 756.751 430.707L789.943 397.515C793.869 393.584 800.269 393.584 804.195 397.515L877.705 471.026C881.636 474.957 881.636 481.347 877.705 485.278L844.513 518.47C842.548 520.435 839.968 521.418 837.387 521.418ZM797.069 404.642L763.877 437.834L837.387 511.344L870.584 478.147L797.069 404.642Z" fill="#000000" fill-rule="nonzero" opacity="1" stroke="none" layername="path"/>
        <path d="M642.449 567.521L649.308 560.135L719.863 625.655L713.004 633.041L642.449 567.521Z" fill="#000000" fill-rule="nonzero" opacity="1" stroke="none" layername="path"/>
        <path d="M794.589 450.035C793.299 450.035 792.009 449.541 791.026 448.558C789.056 446.588 789.056 443.403 791.026 441.432L798.153 434.306C800.123 432.335 803.308 432.335 805.279 434.306C807.249 436.276 807.249 439.461 805.279 441.432L798.153 448.558C797.17 449.546 795.88 450.035 794.589 450.035ZM812.405 467.856C811.115 467.856 809.825 467.362 808.842 466.379C806.871 464.408 806.871 461.223 808.842 459.253L815.968 452.126C817.939 450.156 821.124 450.156 823.094 452.126C825.065 454.097 825.065 457.282 823.094 459.253L815.968 466.379C814.985 467.362 813.695 467.856 812.405 467.856ZM830.221 485.676C828.931 485.676 827.64 485.182 826.658 484.199C824.687 482.229 824.687 479.044 826.658 477.073L833.784 469.947C835.754 467.976 838.939 467.976 840.91 469.947C842.881 471.918 842.881 475.103 840.91 477.073L833.784 484.199C832.801 485.182 831.511 485.676 830.221 485.676Z" fill="#000000" fill-rule="nonzero" opacity="1" stroke="none" layername="path"/>
      </g>
    </g>
  </g>
</svg>